HIERARCHY
ROOT root     
{
	OFFSET 0.0000 0.0000 0.0000
	CHANNELS 6 Xposition Yposition Zposition Zrotation Yrotation Xrotation
	JOINT pelvis   
	{
		OFFSET 0.0000 0.0000 0.0000
		CHANNELS 3 Zrotation Yrotation Xrotation
		JOINT thorax   
		{
			OFFSET 0.0000 23.0750 -5.0000
			CHANNELS 3 Zrotation Yrotation Xrotation
			JOINT rclavicle
			{
				OFFSET 0.0000 28.0009 0.0000
				CHANNELS 3 Zrotation Yrotation Xrotation
				JOINT rhumerus 
				{
					OFFSET -18.5725 5.5939 0.0000
					CHANNELS 3 Zrotation Yrotation Xrotation
					JOINT rradius  
					{
						OFFSET -24.8459 0.0000 0.0000
						CHANNELS 3 Zrotation Yrotation Xrotation
						JOINT rhand    
						{
							OFFSET -24.5477 0.0000 0.0000
							CHANNELS 3 Zrotation Yrotation Xrotation
							End Site
							{
								OFFSET -8.1826 0.0000 0.0000
							}
						}
					}
				}
			}
			JOINT lclavicle
			{
				OFFSET 0.0000 28.0009 0.0000
				CHANNELS 3 Zrotation Yrotation Xrotation
				JOINT lhumerus 
				{
					OFFSET 18.5725 5.5939 0.0000
					CHANNELS 3 Zrotation Yrotation Xrotation
					JOINT lradius  
					{
						OFFSET 24.8459 0.0000 0.0000
						CHANNELS 3 Zrotation Yrotation Xrotation
						JOINT lhand    
						{
							OFFSET 24.5477 0.0000 0.0000
							CHANNELS 3 Zrotation Yrotation Xrotation
							End Site
							{
								OFFSET 8.1826 0.0000 0.0000
							}
						}
					}
				}
			}
			JOINT head     
			{
				OFFSET 0.0000 35.2030 0.0000
				CHANNELS 3 Zrotation Yrotation Xrotation
				End Site
				{
					OFFSET 0.0000 11.7343 0.0000
				}
			}
		}
		JOINT rfemur   
		{
			OFFSET -8.2817 0.0000 0.0000
			CHANNELS 3 Zrotation Yrotation Xrotation
			JOINT rtibia   
			{
				OFFSET 0.0000 -43.3627 0.0000
				CHANNELS 3 Zrotation Yrotation Xrotation
				JOINT rfoot    
				{
					OFFSET 0.0000 -38.2947 0.0000
					CHANNELS 3 Zrotation Yrotation Xrotation
					JOINT rtoes    
					{
						OFFSET 0.0000 0.0000 16.6054
						CHANNELS 3 Zrotation Yrotation Xrotation
						End Site
						{
							OFFSET 0.0000 0.0000 5.5351
						}
					}
				}
			}
		}
		JOINT lfemur   
		{
			OFFSET 8.2817 0.0000 0.0000
			CHANNELS 3 Zrotation Yrotation Xrotation
			JOINT ltibia   
			{
				OFFSET 0.0000 -43.3627 0.0000
				CHANNELS 3 Zrotation Yrotation Xrotation
				JOINT lfoot    
				{
					OFFSET 0.0000 -38.2947 0.0000
					CHANNELS 3 Zrotation Yrotation Xrotation
					JOINT ltoes    
					{
						OFFSET 0.0000 0.0000 16.6054
						CHANNELS 3 Zrotation Yrotation Xrotation
						End Site
						{
							OFFSET 0.0000 0.0000 5.5351
						}
					}
				}
			}
		}
	}
}
MOTION
Frames: 11
Frame Time: .0333333
118.04 78.793 15.141 -114.768 -84.7574 138.33 0 -0 0 -3.17785 -6.04054 17.5454 31.251 -7.69676 3.8069e-05 50.8244 -6.48147 8.75273 -0 58.4208 -0 -4.66443 7.74541 -0.315905 -20.0618 10.0486 8.8244e-05 -45.1473 -20.1608 5.96946 -1.82727e-06 -79.6671 1.52419e-06 3.90295 1.0306 0.0350996 10.6145 4.2911 -19.1451 12.8049 -9.13501 -60.4403 -0 -0 58.4714 -1.17689e-05 -8.96547 -6.3362 0.997494 -2.07525e-06 -29.3468 -1.96676 15.5921 -36.763 -0 -0 60.9091 2.22365e-05 7.42118 -16.6678 -2.13956 1.55102e-05 -49.8805 
117.01 78.872 15.061 -114.054 -84.8551 137.639 0 -0 0 -2.87829 -6.52989 17.4646 31.2575 -8.08173 -2.59345e-05 50.6499 -7.006 8.5866 -0 59.0006 -0 -4.61426 7.81316 -0.315297 -19.8049 10.0591 4.25183e-05 -44.4974 -20.2965 5.64117 6.79317e-07 -80.7747 -1.26438e-06 3.68203 1.12421 0.0360992 10.6574 4.39173 -19.2006 13.2198 -9.14991 -61.1466 -0 -0 55.9254 5.74118e-06 -8.6306 -5.64676 0.855602 -8.04433e-08 -30.5127 -1.76523 15.7163 -35.7902 -0 -0 60.3693 3.12934e-05 7.14244 -16.3686 -2.02264 -1.47307e-05 -50.9184 
115.96 78.936 14.981 -113.467 -84.9772 137.067 0 -0 0 -2.59273 -7.00966 17.388 31.255 -8.46509 3.52445e-05 50.4736 -7.51941 8.44021 -0 59.5905 -0 -4.57606 7.88049 -0.315407 -19.5778 10.0774 -4.75843e-05 -43.8223 -20.3724 5.26852 0 -81.9075 0 3.45592 1.22789 0.0369998 10.6713 4.48073 -19.2829 13.6224 -9.18772 -61.7655 -0 -0 53.342 2.31632e-06 -8.22429 -4.94372 0.713591 5.05039e-06 -31.8324 -1.56913 15.8106 -34.7864 -0 -0 59.8176 4.56294e-06 6.88275 -16.0833 -1.9153 -8.46832e-08 -51.9843 
114.89 78.986 14.895 -112.817 -85.0742 136.409 0 -0 0 -2.27697 -7.47013 17.322 31.2363 -8.81585 1.84366e-05 50.3113 -8.06451 8.24291 -0 60.2175 -0 -4.50097 7.92163 -0.311796 -19.3543 10.0707 5.1127e-06 -43.1771 -20.3425 4.83697 0 -83.0458 0 3.21456 1.31571 0.0369009 10.6444 4.55488 -19.3893 14.0329 -9.21895 -62.2722 -0 -0 50.7138 2.81732e-06 -7.79257 -4.23536 0.579114 -1.21593e-06 -33.4068 -1.33688 15.8916 -33.7446 -0 -0 59.262 -1.98035e-05 6.62753 -15.8078 -1.81281 -3.82426e-06 -53.1316 
113.8 79.023 14.806 -112.143 -85.1954 135.717 0 -0 0 -1.95128 -7.92115 17.2622 31.2065 -9.17224 6.86263e-05 50.1413 -8.58274 8.07647 -6.27354e-07 60.8414 -1.06844e-06 -4.44164 7.95162 -0.308895 -19.1673 10.0897 -1.39393e-05 -42.5271 -20.2793 4.38497 4.48565e-07 -84.177 -1.0482e-06 2.97281 1.41156 0.0365989 10.5851 4.61929 -19.5161 14.4459 -9.26189 -62.6782 -0 -0 48.0673 9.03449e-06 -7.34496 -3.55421 0.457798 -5.31017e-07 -35.206 -1.08612 15.9434 -32.6659 -0 -0 58.6952 3.28972e-06 6.38417 -15.5312 -1.71598 1.1214e-05 -54.3362 
112.69 79.044 14.712 -111.373 -85.3039 134.909 0 -0 0 -1.6054 -8.35917 17.2079 31.1638 -9.51281 6.33395e-05 49.9769 -9.10732 7.89583 -0 61.477 -0 -4.37076 7.95997 -0.304197 -18.9923 10.1135 2.32519e-05 -41.9081 -20.1529 3.91054 2.74338e-06 -85.2881 -3.29405e-06 2.73054 1.50512 0.0359009 10.4955 4.67187 -19.6564 14.8619 -9.3059 -62.9694 -0 -0 45.4088 1.91498e-06 -6.91357 -2.91702 0.353497 -1.6429e-06 -37.2223 -0.80492 15.9675 -31.5464 -0 -0 58.1175 1.7328e-05 6.14569 -15.2433 -1.62157 1.1821e-05 -55.6034 
111.54 79.05 14.61 -110.504 -85.4019 133.983 0 -0 0 -1.23671 -8.78364 17.1572 31.1068 -9.84505 5.89156e-05 49.8213 -9.63052 7.70429 -0 62.123 -0 -4.29055 7.94717 -0.298203 -18.8309 10.1504 2.86459e-05 -41.3279 -19.978 3.43059 0 -86.3752 0 2.49452 1.59731 0.0347989 10.3797 4.71217 -19.803 15.2771 -9.34681 -63.1385 -0 -0 42.7521 1.34866e-06 -6.52283 -2.33888 0.267405 1.47887e-06 -39.378 -0.490354 15.9665 -30.3829 -0 -0 57.5307 5.87893e-06 5.90632 -14.9328 -1.52696 2.10152e-05 -56.9276 
110.37 79.038 14.501 -109.548 -85.4952 132.948 0 -0 0 -0.853318 -9.19401 17.1069 31.0385 -10.1691 2.29126e-05 49.6805 -10.1575 7.49315 -0 62.7818 -0 -4.19685 7.91586 -0.290498 -18.6754 10.2017 -8.61499e-05 -40.7968 -19.7566 2.95885 5.21218e-06 -87.4222 -5.76241e-06 2.27172 1.68813 0.033499 10.2451 4.73833 -19.9518 15.6776 -9.38337 -63.1835 -0 -0 40.128 -1.7728e-06 -6.18965 -1.82798 0.198206 3.48239e-06 -41.5527 -0.147767 15.9356 -29.1761 -0 -0 56.9366 -2.7518e-05 5.66276 -14.5872 -1.43054 -1.02916e-05 -58.2876 
109.18 79.008 14.384 -108.499 -85.5811 131.795 0 -0 0 -0.456696 -9.58753 17.057 30.9533 -10.5007 -5.92459e-05 49.5594 -10.6706 7.27413 -7.09941e-07 63.4415 -1.14856e-06 -4.09797 7.87251 -0.282096 -18.5251 10.2792 -8.8325e-06 -40.3147 -19.5121 2.515 0 -88.3817 0 2.07013 1.78065 0.0322013 10.0962 4.74853 -20.0988 16.0502 -9.41128 -63.1038 -0 -0 37.5706 -1.15528e-06 -5.92826 -1.38019 0.143305 1.59807e-06 -43.607 0.220432 15.8829 -27.9213 -0 -0 56.3371 1.17528e-05 5.40817 -14.1972 -1.33011 -7.65426e-06 -59.6661 
107.95 78.956 14.264 -107.455 -85.6953 130.627 0 -0 0 -0.0689927 -9.96253 17.0026 30.8552 -10.8334 2.87493e-05 49.4661 -11.1859 7.03114 -5.18977e-07 64.1133 -8.28705e-07 -3.9853 7.82004 -0.272499 -18.3676 10.3769 9.99949e-05 -39.8901 -19.2375 2.1086 -2.43407e-05 -89.335 2.40584e-05 1.89355 1.8742 0.0310009 9.94285 4.7407 -20.2391 16.3674 -9.43171 -62.9145 -0 -0 35.1389 -4.25364e-07 -5.73999 -0.982695 0.0987981 2.61074e-07 -45.421 0.595135 15.8014 -26.6159 -0 -0 55.7282 -1.52793e-05 5.14496 -13.7589 -1.22668 1.34141e-06 -61.0389 
106.69 78.881 14.141 -106.569 -85.8185 129.589 0 -0 0 0.295987 -10.3162 16.9406 30.7421 -11.1726 -1.74133e-05 49.4057 -11.7012 6.76472 -8.46457e-07 64.7979 -5.37154e-07 -3.8594 7.76409 -0.262001 -18.2018 10.4981 6.40215e-05 -39.5251 -18.9397 1.75232 -180 -89.7653 180 1.74513 1.97016 0.0300013 9.79001 4.7129 -20.3678 16.6064 -9.44582 -62.6339 -0 -0 32.9063 5.83125e-07 -5.62132 -0.611609 0.0602013 3.79298e-08 -46.9332 0.960249 15.6947 -25.2615 -0 -0 55.1116 1.29582e-05 4.87431 -13.2691 -1.1214 1.96284e-06 -62.3875 
